# xmcd
#
# Track frame offsets:
#	150
#	19224
#	36249
#	60074
#	79715
#	91023
#	111672
#	131089
#	147634
#
# Disc length: 2299 seconds
#
# Revision: 15
# Processed by: cddbd v1.5.2PL0 Copyright (c) Steve Scherf et al.
# Submitted via: Jack! The Knife 20 Magnifico
#
DISCID=7608f909
DTITLE=Loudness - Disillusion
DYEAR=1984
DGENRE=Heavy Metal
TTITLE0=Crazy Doctor
TTITLE1=Esper
TTITLE2=Butterfly
TTITLE3=Revelation
TTITLE4=Exploder
TTITLE5=Dream Fantasy
TTITLE6=Milky Way
TTITLE7=Satisfaction Guaranteed
TTITLE8=Ares Lament
EXTD=Loudness
EXTT0=Takasaki, Niihara
EXTT1=Takasaki, Niihara
EXTT2=Takasaki, Niihara
EXTT3=Takasaki, Niihara
EXTT4=Takasaki, Niihara
EXTT5=Takasaki, Niihara
EXTT6=Takasaki, Niihara
EXTT7=Takasaki, Niihara
EXTT8=Takasaki, Niihara
PLAYORDER=
